<svg width="47" height="40" viewBox="0 0 47 40" fill="none" xmlns="http://www.w3.org/2000/svg">
<path d="M18.4615 32.5874C18.4615 36.3636 15.6643 40 10.3497 40C3.77622 40 0 34.2657 0 26.8531C0 14.6853 12.4476 0 15.9441 0C16.6434 0 17.3427 0.139858 17.3427 1.11888C17.3427 3.63637 6.71329 10.3497 6.71329 20.5594C6.71329 22.7972 6.99301 24.8951 9.09091 25.4545C12.1678 26.2937 18.4615 26.1539 18.4615 32.5874ZM46.993 32.5874C46.993 36.3636 44.1958 40 38.8811 40C32.3077 40 28.5315 34.2657 28.5315 26.8531C28.5315 14.6853 40.979 0 44.4755 0C45.1748 0 45.8741 0.139858 45.8741 1.11888C45.8741 3.63637 35.2448 10.3497 35.2448 20.5594C35.2448 22.7972 35.5245 24.8951 37.6224 25.4545C40.6993 26.2937 46.993 26.1539 46.993 32.5874Z" fill="#212529"/>
</svg>
