<svg width="22" height="22" viewBox="0 0 22 22" fill="none" xmlns="http://www.w3.org/2000/svg">
<path d="M1 3.22222C1 2.63285 1.23412 2.06762 1.65088 1.65088C2.06762 1.23412 2.63285 1 3.22222 1H6.86667C7.09977 1.00018 7.32695 1.07367 7.5159 1.21006C7.70495 1.34645 7.84638 1.53884 7.92 1.76L9.58448 6.75222C9.66876 7.00593 9.65876 7.28152 9.55638 7.52848C9.4539 7.77543 9.26581 7.97714 9.02667 8.09667L6.51889 9.35219C7.7481 12.0729 9.92714 14.2519 12.6478 15.4811L13.9033 12.9733C14.0229 12.7342 14.2246 12.5461 14.4715 12.4436C14.7185 12.3412 14.9941 12.3312 15.2478 12.4155L20.24 14.08C20.4613 14.1537 20.6539 14.2952 20.7903 14.4845C20.9267 14.6737 21.0001 14.9011 21 15.1345V18.7778C21 19.3671 20.7659 19.9324 20.3491 20.3491C19.9324 20.7659 19.3671 21 18.7778 21H17.6667C8.46219 21 1 13.5378 1 4.33333V3.22222Z" stroke="white" stroke-width="0.833333" stroke-linecap="round" stroke-linejoin="round"/>
</svg>
