<svg width="100" height="100" viewBox="0 0 100 100" fill="none" xmlns="http://www.w3.org/2000/svg">
<path d="M96.026 75.8072C94.4676 74.5269 92.5388 73.8285 90.5139 73.8285H84.5852C83.3309 73.8285 82.3113 72.8106 82.3113 71.5621V71.4725V71.3827V71.2926V71.2021V71.1114V71.0204V70.9291V70.8376V70.7457V70.6536V70.5612V70.4685V70.3755V70.2822V70.1887V70.0949V70.0008V69.9065V69.8118V69.7169V69.6218V69.5263V69.4306V69.3347V69.2384V69.1419V69.0452V68.9482V68.8509V68.7534V68.6556V68.5575V68.4592V68.3607V68.2619V68.1628V68.0635V67.9639V67.8641V67.7641V67.6638V67.5632V67.4625V67.3614V67.2602V67.1587V67.0569V66.9549V66.8527V66.7503V66.6476V66.5447V66.4415V66.3381V66.2345V66.1307V66.0267V65.9224V65.8179V65.7131V65.6082V65.503V65.3976V65.292V65.1862V65.0802V64.9739V64.8675V64.7608V64.6539V64.5468V64.4395V64.332V64.2243V64.1163V64.0082V63.8999V63.7914V63.6826V63.5737V63.4646V63.3553V63.2458V63.1361V63.0262V62.9161V62.8058V62.6953V62.5847V62.4738V62.3628V62.2516V62.1402V62.0286V61.9169V61.805V61.6928V61.5806V61.4681V61.3555V61.2426V61.1297V61.0165V60.9032V60.7897V60.676V60.5622V60.4482V60.3341V60.2198V60.1053V59.9906V59.8758V59.7609V59.6458V59.5305V59.4151V59.2995V59.1838V59.0679V58.9519V58.8358V58.7194V58.603V58.4864V58.3696V58.2527V58.1357V58.0185V57.9012V57.7838V57.6662V57.5485V57.4306V57.3127V57.1945V57.0763V56.9579V56.8394V56.7208V56.6021V56.4832V56.3642V56.2451V56.1258V56.0065V55.887V55.7674V55.6477V55.5279V55.408V55.2879V55.1678V55.0475V54.9271V54.8066V54.6861V54.5654V54.4446V54.3237V54.2027V54.0816V53.9604V53.8391V53.7177V53.5962V53.4746V53.353V53.2312V53.1094V52.9874V52.8654V52.7433V52.6211V52.4988V52.3764V52.254V52.1314V52.0088V51.8861V51.7634V51.6405V51.5176V51.3946V51.2716V51.1484V51.0252V50.902V50.7786V50.6552V50.5318V50.4082V50.2846V50.161V50.0373V49.9135V49.7897V49.6658V49.5418V49.4178V49.2938V49.1697V49.0455V48.9213V48.7971V48.6728V48.5484V48.424V48.2996V48.1751V48.0506V47.9261V47.8015V47.6769V47.5522V47.4275V47.3028V47.178V47.0532V46.9284V46.8035V46.6786V46.5537V46.4288V46.3038V46.1788V46.0538V45.9288V45.8038V45.6787V45.5536V45.4285V45.3034V45.1783V45.0532V44.928V44.8029V44.6777V44.5525V44.4274V44.3022V44.177V44.0518V43.9266V43.8014V43.6762V43.5511V43.4259V43.3007V43.1755V43.0504V42.9252V42.8001V42.6749V42.5498V42.4247V42.2996V42.1745V42.0495V41.9244V41.7994V41.6744V41.5494V41.4245V41.2995V41.1746V41.0497V40.9249V40.8V40.6752V40.5505V40.4257V40.301V40.1764V40.0517V39.9272V39.8026V39.6781V39.5536V39.4292V39.3048V39.1805V39.0562V38.9319V38.8077V38.6835V38.5594V38.4354V38.3114V38.1874V38.0636V37.9397V37.816V37.6922V37.5686V37.445V37.3214V37.198V37.0746V36.9512V36.828V36.7048V36.5816V36.4586V36.3356V36.2127V36.0898V35.9671V35.8444V35.7218V35.5992V35.4768V35.3544V35.2321V35.1099V34.9878V34.8658V34.7438V34.622V34.5002V34.3785V34.257V34.1355V34.0141V33.8928V33.7716V33.6505V33.5295V33.4086V33.2878V33.1671V33.0465V32.926V32.8057V32.6854V32.5653V32.4452V32.3253V32.2054V32.0857V31.9661V31.8467V31.7273V31.6081V31.489V31.37V31.2511V31.1323V31.0137V30.8952V30.7768V30.6586V30.5405V30.4225V30.3046V30.1869V30.0693V29.9519V29.8346V29.7174V29.6004V29.4835V29.3667V29.2501V29.1337V29.0173V28.9012V28.7852V28.6693V28.5536V28.438V28.3226V28.2073V28.0922V27.9772V27.8624V27.7478V27.6333V27.519V27.4048V27.2909V27.177V27.0634V26.9499V26.8365V26.7234V26.6104V26.4976V26.385V26.2725V26.1602V26.0481V25.9361V25.8244V25.7128V25.6014V25.4902V25.3792V25.2683V25.1577V25.0472V24.9369V24.8268V24.7169V24.6072V24.4977V24.3884V24.2793V24.1703V24.0616V23.9531V23.8448V23.7366V23.6287V23.521V23.4135V23.3062V23.1991V23.0922V22.9855V22.879V22.7728V22.6667V22.5609V22.4553V22.3499V22.2447V22.1398V22.0351V21.9305V21.8263V21.7222V21.6184V21.5148V21.4114V21.3082V21.2053V21.1026V21.0002V20.8979V20.796V20.6942V20.5927V20.4914V20.3904V20.2896V20.1891V20.0888V19.9887V19.8889V19.7893V19.69V19.591V19.4922V19.3936V19.2953V19.1972V19.0994V19.0019V18.9046V18.8076V18.7108V18.6143V18.5181V18.4221V18.3264V18.231V18.1358V18.0409V17.9463V17.8519V17.7579V17.6641V17.5705V17.4773V17.3843V17.2916V17.1992V17.107V17.0152V16.9236V16.8323V16.7413V16.6506V16.5601V16.47V16.3802V16.2906V16.2013V16.1124V16.0237V15.9353V15.8472V15.7595V15.672V15.5848V15.4979V15.4114V15.3251V15.2391V15.1535V15.0682V14.9831V14.8984V14.814V14.7299V14.6461V14.5627V14.4795V14.3967V14.3142V14.232C82.3113 12.9837 83.331 11.9656 84.5852 11.9656H90.5139C93.4426 11.9656 96.026 14.3198 96.026 17.4777V75.8072ZM9.49453 73.8287C7.46421 73.8287 5.5366 74.5247 3.97402 75.813V17.4777C3.97402 14.4245 6.46393 11.9656 9.49453 11.9656H15.415C16.6693 11.9656 17.6889 12.9835 17.6889 14.232V71.5623C17.6889 72.8106 16.6692 73.8287 15.415 73.8287H9.49453ZM9.49453 91.2152H90.5139C95.3073 91.2152 99.2066 87.3193 99.2066 82.5299V17.4777C99.2066 12.5131 95.1492 8.78494 90.5139 8.78494H84.5852C81.5775 8.78494 79.1307 11.2282 79.1307 14.232V19.5617H20.8695V14.232C20.8695 11.2279 18.4225 8.78494 15.415 8.78494H9.49453C4.68862 8.78494 0.793359 12.6832 0.793359 17.4777V82.5299C0.793359 87.3196 4.69678 91.2152 9.49453 91.2152ZM9.49453 77.0093H15.415C18.4227 77.0093 20.8695 74.5661 20.8695 71.5623V22.7426H79.1305V71.5623C79.1305 74.5663 81.5775 77.0093 84.585 77.0093H90.5137C92.3192 77.0093 93.6611 77.7011 94.5598 78.7214C95.4651 79.7493 95.9377 81.1313 95.951 82.5257C95.9643 83.9199 95.5182 85.2988 94.6223 86.3234C93.7332 87.3401 92.3791 88.0343 90.5137 88.0343H9.49453C7.63414 88.0343 6.29361 87.3406 5.41863 86.3255C4.53646 85.3021 4.10391 83.9237 4.12593 82.5282C4.14794 81.1326 4.62432 79.7488 5.52198 78.72C6.4129 77.6989 7.73329 77.0093 9.49453 77.0093Z" fill="#76C2BD" stroke="#76C2BD" stroke-width="0.8"/>
<path d="M52.0275 42.6752V42.6752L52.0267 42.6745C51.453 42.1667 50.5962 42.1351 49.9897 42.6107L49.9895 42.6109L33.7424 55.3416L33.7423 55.3416C33.3574 55.6434 33.1325 56.1053 33.1325 56.5939V75.34C33.1325 76.2183 33.8443 76.9305 34.7229 76.9305H65.2774C66.1557 76.9305 66.8678 76.2186 66.8678 75.34V56.5939C66.8678 56.1403 66.6739 55.708 66.3347 55.4061L66.3347 55.4061L52.0275 42.6752ZM63.6868 73.7498H63.6532H63.6084H63.5634H63.5181H63.4726H63.4268H63.3808H63.3346H63.2881H63.2413H63.1943H63.1471H63.0996H63.0519H63.004H62.9558H62.9074H62.8588H62.8099H62.7608H62.7115H62.6619H62.6121H62.5621H62.5119H62.4614H62.4107H62.3598H62.3087H62.2574H62.2058H62.1541H62.1021H62.0499H61.9975H61.9449H61.892H61.839H61.7858H61.7323H61.6787H61.6248H61.5708H61.5165H61.4621H61.4074H61.3526H61.2976H61.2423H61.1869H61.1313H61.0755H61.0195H60.9633H60.907H60.8504H60.7937H60.7368H60.6797H60.6224H60.5649H60.5073H60.4495H60.3915H60.3333H60.275H60.2165H60.1578H60.099H60.04H59.9808H59.9215H59.862H59.8023H59.7425H59.6825H59.6224H59.5621H59.5016H59.441H59.3802H59.3193H59.2582H59.197H59.1357H59.0741H59.0125H58.9507H58.8887H58.8267H58.7644H58.7021H58.6395H58.5769H58.5141H58.4512H58.3882H58.325H58.2617H58.1982H58.1347H58.071H58.0071H57.9432H57.8791H57.8149H57.7506H57.6862H57.6217H57.557H57.4922H57.4273H57.3623H57.2972H57.2319H57.1666H57.1012H57.0356H56.9699H56.9042H56.8383H56.7723H56.7063H56.6401H56.5738H56.5075H56.441H56.3744H56.3078H56.2411H56.1742H56.1073H56.0403H55.9732H55.906H55.8388H55.7714H55.704H55.6365H55.5689H55.5012H55.4335H55.3656H55.2978H55.2298H55.1618H55.0936H55.0255H54.9572H54.8889H54.8205H54.7521H54.6836H54.615H54.5464H54.4777H54.409H54.3402H54.2713H54.2024H54.1334H54.0644H53.9954H53.9263H53.8571H53.7879H53.7186H53.6493H53.58H53.5106H53.4412H53.3717H53.3022H53.2327H53.1631H53.0935H53.0239H52.9542H52.8845H52.8148H52.7451H52.6753H52.6055H52.5357H52.4658H52.3959H52.326H52.2561H52.1862H52.1163H52.0463H51.9763H51.9063H51.8363H51.7663H51.6963H51.6263H51.5563H51.4862H51.4162H51.3461H51.2761H51.2061H51.136H51.066H50.9959H50.9259H50.8559H50.7859H50.7159H50.6459H50.5759H50.5059H50.436H50.366H50.2961H50.2262H50.1563H50.0864H50.0166H49.9467H49.8769H49.8072H49.7374H49.6677H49.598H49.5283H49.4587H49.3891H49.3195H49.25H49.1805H49.111H49.0416H48.9723H48.9029H48.8336H48.7644H48.6952H48.626H48.5569H48.4878H48.4188H48.3499H48.281H48.2121H48.1433H48.0746H48.0059H47.9373H47.8687H47.8002H47.7318H47.6634H47.5951H47.5269H47.4587H47.3906H47.3226H47.2546H47.1867H47.1189H47.0512H46.9835H46.9159H46.8484H46.781H46.7137H46.6464H46.5792H46.5121H46.4451H46.3782H46.3114H46.2447H46.178H46.1115H46.045H45.9787H45.9124H45.8463H45.7802H45.7142H45.6484H45.5826H45.517H45.4514H45.386H45.3206H45.2554H45.1903H45.1253H45.0604H44.9956H44.931H44.8665H44.802H44.7377H44.6735H44.6095H44.5456H44.4817H44.4181H44.3545H44.2911H44.2278H44.1646H44.1016H44.0387H43.9759H43.9133H43.8508H43.7884H43.7262H43.6641H43.6022H43.5404H43.4787H43.4172H43.3559H43.2947H43.2336H43.1727H43.112H43.0514H42.9909H42.9307H42.8705H42.8106H42.7507H42.6911H42.6316H42.5723H42.5131H42.4541H42.3953H42.3366H42.2782H42.2198H42.1617H42.1037H42.0459H41.9883H41.9309H41.8736H41.8165H41.7596H41.7029H41.6464H41.59H41.5338H41.4779H41.4221H41.3665H41.3111H41.2559H41.2008H41.146H41.0914H41.037H40.9827H40.9287H40.8749H40.8212H40.7678H40.7146H40.6616H40.6088H40.5562H40.5038H40.4516H40.3996H40.3479H40.2964H40.245H40.1939H40.1431H40.0924H40.042H39.9917H39.9417H39.892H39.8424H39.7931H39.744H39.6952H39.6466H39.5982H39.55H39.5021H39.4544H39.407H39.3598H39.3128H39.2661H39.2196H39.1733H39.1273H39.0816H39.0361H38.9909H38.9459H38.9011H38.8566H38.8124H38.7684H38.7247H38.6812H38.638H38.595H38.5523H38.5099H38.4677H38.4259H38.3842H38.3429H38.3018H38.2609H38.2204H38.1801H38.1401H38.1004H38.0609H38.0218H37.9829H37.9443H37.9059H37.8679H37.8301H37.7926H37.7555H37.7185H37.6819H37.6456H37.6096H37.5738H37.5384H37.5033H37.4684H37.4339H37.3996H37.3656H37.332H37.2986H37.2656H37.2329H37.2004H37.1683H37.1365H37.105H37.0738H37.0429H37.0124H36.9821H36.9522H36.9226H36.8933H36.8643H36.8357H36.8074H36.7794H36.7517H36.7243H36.6973H36.6706H36.6443H36.6182H36.5926H36.5672H36.5422H36.5175H36.4931H36.4691H36.4455H36.4221H36.3992H36.3765H36.3542H36.3323H36.3131V57.3682L50.9052 45.9344L63.6868 57.3074V73.7498Z" fill="#76C2BD" stroke="#76C2BD" stroke-width="0.8"/>
<path d="M70.1043 54.3299L70.1041 54.3298L51.1178 37.5301L44.4068 43.0879L70.1043 54.3299ZM70.1043 54.3299C70.758 54.9077 71.7649 54.8523 72.3492 54.192L72.3493 54.1919M70.1043 54.3299L72.3493 54.1919M72.3493 54.1919C72.9307 53.5345 72.8698 52.5294 72.2114 51.9468L52.2061 34.2453L52.206 34.2451M72.3493 54.1919L52.206 34.2451M52.206 34.2451C51.6167 33.7243 50.7396 33.7148 50.1388 34.2113L50.1385 34.2116M52.206 34.2451L50.1385 34.2116M50.1385 34.2116L44.9828 38.481V35.4366C44.9828 34.5584 44.271 33.8462 43.3924 33.8462H38.0571C37.1788 33.8462 36.4666 34.5581 36.4666 35.4366V44.8659L27.8373 51.906C27.1566 52.4612 27.0545 53.4627 27.61 54.1438L27.61 54.1438M50.1385 34.2116L27.61 54.1438M27.61 54.1438C28.1675 54.8271 29.1718 54.924 29.848 54.3707C29.848 54.3707 29.8481 54.3706 29.8481 54.3706L39.062 46.8539M27.61 54.1438L39.062 46.8539M39.062 46.8539C39.062 46.8539 39.062 46.8538 39.0621 46.8538C39.4323 46.5519 39.6473 46.0996 39.6473 45.6212V37.0271M39.062 46.8539L39.6473 37.0271M39.6473 37.0271H41.802V41.863C41.802 42.4791 42.1574 43.0395 42.7152 43.3019L39.6473 37.0271ZM42.7154 43.302C43.274 43.5648 43.9317 43.4818 44.4065 43.0881L42.7154 43.302Z" fill="#76C2BD" stroke="#76C2BD" stroke-width="0.8"/>
</svg>
