<svg width="28" height="28" viewBox="0 0 28 28" fill="none" xmlns="http://www.w3.org/2000/svg">
<path d="M14.0003 2.9165C11.0608 2.9165 8.24175 4.08421 6.16322 6.16274C4.0847 8.24126 2.91699 11.0604 2.91699 13.9998C2.91699 16.9393 4.0847 19.7584 6.16322 21.8369C8.24175 23.9155 11.0608 25.0832 14.0003 25.0832C16.9398 25.0832 19.7589 23.9155 21.8374 21.8369C23.916 19.7584 25.0837 16.9393 25.0837 13.9998C25.0837 11.0604 23.916 8.24126 21.8374 6.16274C19.7589 4.08421 16.9398 2.9165 14.0003 2.9165Z" fill="#DE675A"/>
<path d="M15.5004 16.9377H18.3686L18.819 14.024H15.4998V12.4315C15.4998 11.221 15.8953 10.1477 17.0276 10.1477H18.847V7.60495C18.5273 7.56179 17.8512 7.46729 16.5737 7.46729C13.9061 7.46729 12.3422 8.87604 12.3422 12.0855V14.024H9.59998V16.9377H12.3422V24.9463C12.8853 25.028 13.4354 25.0834 14.0001 25.0834C14.5105 25.0834 15.0086 25.0367 15.5004 24.9702V16.9377Z" fill="white"/>
</svg>
