<svg width="32" height="32" viewBox="0 0 32 32" fill="none" xmlns="http://www.w3.org/2000/svg">
<rect width="32" height="32" rx="3" fill="white"/>
<g clip-path="url(#clip0_2022_21)">
<path d="M20.5874 15.852H11.0508V24.5336C11.0508 27.3946 13.9447 26.0135 13.9447 27.0329C13.9447 27.2302 13.8132 27.4275 13.5172 27.4275C12.728 27.4275 11.9387 27.3617 9.47235 27.3617C7.00598 27.3617 6.21674 27.4275 5.4275 27.4275C5.13154 27.4275 5 27.2302 5 27.0329C5 26.0135 7.89387 27.3946 7.89387 24.5336V7.89387C7.89387 5.03288 5 6.41405 5 5.39462C5 5.19731 5.13154 5 5.4275 5C6.21674 5 7.00598 5.06577 9.47235 5.06577C11.9387 5.06577 12.728 5 13.5172 5C13.8132 5 13.9447 5.19731 13.9447 5.39462C13.9447 6.41405 11.0508 5.03288 11.0508 7.89387V15.2601H20.5874V7.89387C20.5874 5.03288 17.6936 6.41405 17.6936 5.39462C17.6936 5.19731 17.8251 5 18.1211 5C18.9103 5 19.6996 5.06577 22.1659 5.06577C24.6323 5.06577 25.4215 5 26.2108 5C26.5067 5 26.6383 5.19731 26.6383 5.39462C26.6383 6.41405 23.7444 5.03288 23.7444 7.89387V24.5336C23.7444 27.3946 26.6383 26.0135 26.6383 27.0329C26.6383 27.2302 26.5067 27.4275 26.2108 27.4275C25.4215 27.4275 24.6323 27.3617 22.1659 27.3617C19.6996 27.3617 18.9103 27.4275 18.1211 27.4275C17.8251 27.4275 17.6936 27.2302 17.6936 27.0329C17.6936 26.0135 20.5874 27.3946 20.5874 24.5336V15.852Z" fill="#212529"/>
<path d="M35.8355 26.8356C39.124 26.8356 40.3078 23.4155 40.3078 19.8969C40.3078 16.3782 39.124 12.9581 35.8355 12.9581C32.547 12.9581 31.3632 16.3782 31.3632 19.8969C31.3632 23.4155 32.547 26.8356 35.8355 26.8356ZM35.8355 27.6248C31.4618 27.6248 28.2062 23.9746 28.2062 19.8969C28.2062 15.8191 31.4618 12.1689 35.8355 12.1689C40.2092 12.1689 43.4648 15.8191 43.4648 19.8969C43.4648 23.9746 40.2092 27.6248 35.8355 27.6248Z" fill="#212529"/>
<path d="M50.2756 12.1689V15.1943C51.854 14.0105 54.0244 12.1689 56.4908 12.1689C59.1545 12.1689 60.2068 13.6158 60.2068 15.5561V25.0598C60.2068 27.1315 62.6403 26.145 62.6403 27.0329C62.6403 27.3288 62.4759 27.4275 62.1141 27.4275C61.292 27.4275 60.5357 27.3617 58.727 27.3617C56.9183 27.3617 56.162 27.4275 55.3398 27.4275C54.9781 27.4275 54.8137 27.3288 54.8137 27.0329C54.8137 26.145 57.2472 27.1315 57.2472 25.0598V16.0493C57.2472 14.6682 56.6881 13.8789 55.011 13.8789C53.1366 13.8789 51.854 14.6682 50.2756 16.1151V25.0598C50.2756 27.1315 52.7091 26.145 52.7091 27.0329C52.7091 27.3288 52.5446 27.4275 52.1829 27.4275C51.3608 27.4275 50.6044 27.3617 48.7958 27.3617C46.9871 27.3617 46.2307 27.4275 45.4086 27.4275C45.0469 27.4275 44.8824 27.3288 44.8824 27.0329C44.8824 26.145 47.3159 27.1315 47.3159 25.0598V15.9836C47.3159 13.7803 44.8824 14.701 44.8824 13.9447C44.8824 13.3528 45.7703 13.9118 50.2756 12.1689Z" fill="#212529"/>
<path d="M69.8346 34.3333C65.9213 34.3333 62.9288 32.9851 62.9288 30.4529C62.9288 28.9731 64.1455 28.0523 65.4938 27.6906C64.6717 27.0658 64.1127 26.2108 64.1127 25.0927C64.1127 22.8894 66.3817 21.9028 68.7494 21.9357V21.8371C66.6448 21.4753 64.5402 20.0942 64.5402 17.299C64.5402 13.7145 67.9602 12.1689 70.4923 12.1689C70.4923 10.7877 71.742 7.8281 73.9124 7.8281C74.9647 7.8281 75.5237 8.42003 75.5237 9.1435C75.5237 10.1958 74.8003 10.6562 73.6164 10.6562C73.1889 10.6562 72.86 10.5904 72.4654 10.5904C71.5775 10.5904 71.2816 11.281 71.15 12.1689C73.8795 12.3004 76.7076 14.0433 76.7076 16.9701C76.7076 20.2915 73.8137 21.7055 71.2487 22.1001C67.73 22.6263 66.6777 22.7578 66.6777 23.9417C66.6777 24.8296 67.5327 25.5202 69.6044 25.5202H72.6627C76.7076 25.5202 78.1874 27.1315 78.1874 29.5321C78.1874 32.2287 74.7345 34.3333 69.8346 34.3333ZM75.6224 30.5187C75.6224 27.4604 72.301 29.2362 66.2831 28.0194C65.3294 28.0194 64.5073 28.9402 64.5073 30.2556C64.5073 32.3602 66.3488 33.5441 69.6373 33.5441C73.6822 33.5441 75.6224 32.426 75.6224 30.5187ZM67.8287 17.1345H67.7958C67.8287 20.1928 68.585 21.5082 70.591 21.5082C72.6627 21.5082 73.4191 20.1928 73.452 17.1345C73.4191 14.0762 72.6956 12.7608 70.6239 12.7608C68.585 12.7608 67.7958 14.0762 67.8287 17.1345Z" fill="#212529"/>
<path d="M86.2406 26.8356C89.5291 26.8356 90.7129 23.4155 90.7129 19.8969C90.7129 16.3782 89.5291 12.9581 86.2406 12.9581C82.9521 12.9581 81.7683 16.3782 81.7683 19.8969C81.7683 23.4155 82.9521 26.8356 86.2406 26.8356ZM86.2406 27.6248C81.8669 27.6248 78.6113 23.9746 78.6113 19.8969C78.6113 15.8191 81.8669 12.1689 86.2406 12.1689C90.6143 12.1689 93.8699 15.8191 93.8699 19.8969C93.8699 23.9746 90.6143 27.6248 86.2406 27.6248Z" fill="#212529"/>
<path d="M110.162 7.89387V24.5336C110.162 26.0135 110.688 26.6383 112.694 26.6383C116.509 26.6383 119.732 23.9417 121.113 20.719C121.803 19.1076 121.705 18.6801 122.066 18.6801C122.231 18.6801 122.329 18.7788 122.329 18.9761C122.329 19.1405 122.198 19.7982 122.034 20.423L120.323 27.4275C116.706 27.3946 112.892 27.3617 108.584 27.3617C106.117 27.3617 105.328 27.4275 104.539 27.4275C104.243 27.4275 104.111 27.2302 104.111 27.0329C104.111 26.0135 107.005 27.3946 107.005 24.5336V7.89387C107.005 5.03288 104.111 6.41405 104.111 5.39462C104.111 5.19731 104.243 5 104.539 5C105.328 5 106.117 5.06577 108.584 5.06577C111.05 5.06577 111.839 5 112.628 5C112.924 5 113.056 5.19731 113.056 5.39462C113.056 6.41405 110.162 5.03288 110.162 7.89387Z" fill="#212529"/>
<path d="M135.659 15.5561V25.3229C135.659 25.9148 135.987 26.2436 136.514 26.2436C137.434 26.2436 138.059 25.1256 138.355 25.1256C138.487 25.1256 138.618 25.2242 138.618 25.4215C138.618 25.7175 136.842 27.6248 135.1 27.6248C133.488 27.6248 132.831 26.3094 132.765 25.2242C130.825 26.8356 128.851 27.6248 127.207 27.6248C125.07 27.6248 123.689 26.2436 123.689 24.4021C123.689 22.2975 124.774 21.278 132.699 18.2197V14.3722C132.699 13.3528 132.107 12.9581 131.088 12.9581C127.174 12.9581 128.819 18.2197 125.3 18.2197C124.675 18.2197 124.215 17.6278 124.215 16.8386C124.215 14.8326 128.786 12.1689 131.844 12.1689C134.179 12.1689 135.659 13.2212 135.659 15.5561ZM132.699 24.4021V19.009C127.931 20.6861 126.845 21.7055 126.845 23.8102C126.845 25.7175 127.569 26.441 128.687 26.441C129.345 26.441 130.857 25.9806 132.699 24.4021Z" fill="#212529"/>
<path d="M151.871 15.1286L155.291 23.7115L156.968 19.4365C157.626 17.7922 158.283 15.6218 158.283 14.9312C158.283 12.6951 156.31 13.3857 156.31 12.728C156.31 12.4649 156.442 12.3662 156.804 12.3662C157.264 12.3662 158.053 12.432 159.106 12.432C160.224 12.432 161.21 12.3662 161.605 12.3662C161.999 12.3662 162.164 12.4649 162.164 12.728C162.164 13.2541 160.618 12.432 159.171 16.0493L154.666 27.3288C154.502 27.7235 154.37 27.8879 154.107 27.8879C153.844 27.8879 153.745 27.7235 153.581 27.3288L149.799 17.5949L146.248 27.3288C146.116 27.7235 145.985 27.8879 145.721 27.8879C145.458 27.8879 145.327 27.7235 145.162 27.3288L140.098 14.2078C139.408 12.432 138.355 13.2212 138.355 12.6293C138.355 12.432 138.52 12.3662 139.013 12.3662C139.506 12.3662 140.328 12.432 141.381 12.432C142.762 12.432 143.617 12.3662 143.979 12.3662C144.538 12.3662 144.735 12.432 144.735 12.6293C144.735 13.1883 143.288 12.6622 143.288 13.846C143.288 14.4709 143.518 15.0628 143.715 15.5561L146.872 23.4813L149.437 16.8057L148.418 14.4051C147.695 12.6951 146.445 13.1883 146.445 12.6951C146.445 12.432 146.511 12.3662 146.774 12.3662C147.431 12.3662 148.188 12.432 149.569 12.432C150.983 12.432 152.167 12.3662 152.825 12.3662C153.153 12.3662 153.384 12.432 153.384 12.6622C153.384 13.3199 151.509 12.6293 151.509 14.1091C151.509 14.3064 151.772 14.8655 151.871 15.1286Z" fill="#212529"/>
</g>
<defs>
<clipPath id="clip0_2022_21">
<rect width="22" height="22.9167" fill="white" transform="translate(5 5)"/>
</clipPath>
</defs>
</svg>
