<svg width="25" height="24" viewBox="0 0 25 24" fill="none" xmlns="http://www.w3.org/2000/svg">
<path d="M12.4283 2.00024C9.77618 2.00024 7.23264 3.05381 5.35728 4.92918C3.48191 6.80454 2.42834 9.34808 2.42834 12.0002C2.42834 14.6524 3.48191 17.1959 5.35728 19.0713C7.23264 20.9467 9.77618 22.0002 12.4283 22.0002C15.0805 22.0002 17.624 20.9467 19.4994 19.0713C21.3748 17.1959 22.4283 14.6524 22.4283 12.0002C22.4283 9.34808 21.3748 6.80454 19.4994 4.92918C17.624 3.05381 15.0805 2.00024 12.4283 2.00024Z" fill="#76C2BD"/>
<path d="M7.42847 9.5H9.42847V17H7.42847V9.5ZM8.42247 8.5H8.41147C7.81447 8.5 7.42847 8.055 7.42847 7.4995C7.42847 6.932 7.82647 6.5 8.43397 6.5C9.04247 6.5 9.41697 6.932 9.42847 7.4995C9.42847 8.055 9.04247 8.5 8.42247 8.5ZM17.9285 12.25C17.9285 10.731 16.6975 9.5 15.1785 9.5C14.2475 9.5 13.426 9.964 12.9285 10.672V9.5H10.9285V17H12.9285V13C12.9285 12.1715 13.6 11.5 14.4285 11.5C15.257 11.5 15.9285 12.1715 15.9285 13V17H17.9285C17.9285 17 17.9285 12.4605 17.9285 12.25Z" fill="white"/>
</svg>
