<svg width="24" height="24" viewBox="0 0 24 24" fill="none" xmlns="http://www.w3.org/2000/svg">
<path d="M12.0002 2.5C9.48069 2.5 7.06432 3.50089 5.28273 5.28249C3.50113 7.06408 2.50024 9.48044 2.50024 12C2.50024 14.5196 3.50113 16.9359 5.28273 18.7175C7.06432 20.4991 9.48069 21.5 12.0002 21.5C14.5198 21.5 16.9362 20.4991 18.7178 18.7175C20.4994 16.9359 21.5002 14.5196 21.5002 12C21.5002 9.48044 20.4994 7.06408 18.7178 5.28249C16.9362 3.50089 14.5198 2.5 12.0002 2.5Z" fill="#76C2BD"/>
<path d="M13.286 14.5181H15.7445L16.1305 12.0206H13.2855V10.6556C13.2855 9.61814 13.6245 8.69814 14.595 8.69814H16.1545V6.51863C15.8805 6.48163 15.301 6.40063 14.206 6.40063C11.9195 6.40063 10.579 7.60814 10.579 10.3591V12.0206H8.22852V14.5181H10.579V21.3826C11.0445 21.4526 11.516 21.5001 12 21.5001C12.4375 21.5001 12.8645 21.4601 13.286 21.4031V14.5181Z" fill="white"/>
</svg>
