<svg width="100" height="100" viewBox="0 0 100 100" fill="none" xmlns="http://www.w3.org/2000/svg">
<g clip-path="url(#clip0_251_3784)">
<path d="M1.62503 20C0.673029 20.18 -0.0159712 21.024 2.88491e-05 22V78C2.88491e-05 79.102 0.898029 80 2.00003 80H98C99.102 80 100 79.102 100 78V22C100 20.898 99.102 20 98 20H2.00003H1.81253H1.62503ZM4.00003 24H96V76H4.00003V24ZM13.4375 32C12.3355 32.156 11.5608 33.1792 11.7188 34.2812C11.8768 35.3833 12.898 36.156 14 36H56C56.718 36.008 57.3898 35.6318 57.7578 35.0078C58.1178 34.3838 58.1178 33.6182 57.7578 32.9922C57.3898 32.3682 56.718 31.992 56 32H14H13.8125H13.625H13.4375ZM78.4063 37.8945C75.929 37.9993 74.4803 39.0515 73.6875 39.9492C71.5815 42.3332 71.6295 46.258 73.6875 50H70V54H75.0703C74.7703 57.334 71.0048 60.2444 70.8008 60.3984C70.1108 60.9144 69.8296 61.8168 70.1016 62.6328C70.3756 63.4508 71.138 64 72 64H86V60H76.7227C77.9767 58.276 78.9383 56.2 79.0703 54H84V50H78.2657C78.0857 49.63 77.9101 49.2606 77.6641 48.8906C75.9041 46.2506 75.7875 43.6138 76.6875 42.5938C77.5835 41.5858 80.2655 41.3691 85.1055 43.7891L86.8946 40.2109C83.8506 38.6869 81.4353 38.0402 79.5313 37.9102C79.1343 37.8832 78.7602 37.8796 78.4063 37.8945ZM13.4375 40C12.3355 40.156 11.5608 41.1793 11.7188 42.2812C11.8768 43.3832 12.898 44.156 14 44H48C48.718 44.008 49.3898 43.6318 49.7578 43.0078C50.1178 42.3838 50.1178 41.6182 49.7578 40.9922C49.3898 40.3682 48.718 39.992 48 40H14H13.8125H13.625H13.4375ZM12 50.8828V53.7812H16.1602V69.4609H19.7852V53.7812H23.9688V50.8828H12ZM28.7383 50.8828L23.5078 69.4609H27.1719L28.1641 65.4922H33.0664L34.0703 69.4609H37.7344L32.5157 50.8828H28.7383ZM38.2344 50.8828L42.7383 60.0977L38.1211 69.4609H42.3438L44.9453 62.8281H45.0235L47.625 69.4609H52L47.1914 60.0977L51.6953 50.8828H47.4961L44.9688 57.3789H44.8946L42.4063 50.8828H38.2344ZM30.5782 56.0273H30.6524L32.3242 62.5977H28.9063L30.5782 56.0273Z" fill="#76C2BD"/>
</g>
<defs>
<clipPath id="clip0_251_3784">
<rect width="100" height="100" fill="white"/>
</clipPath>
</defs>
</svg>
