<svg width="28" height="28" viewBox="0 0 28 28" fill="none" xmlns="http://www.w3.org/2000/svg">
<path d="M13.9997 2.3335C10.9055 2.3335 7.93802 3.56266 5.7501 5.75058C3.56217 7.93851 2.33301 10.906 2.33301 14.0002C2.33301 17.0944 3.56217 20.0618 5.7501 22.2497C7.93802 24.4377 10.9055 25.6668 13.9997 25.6668C17.0939 25.6668 20.0613 24.4377 22.2493 22.2497C24.4372 20.0618 25.6663 17.0944 25.6663 14.0002C25.6663 10.906 24.4372 7.93851 22.2493 5.75058C20.0613 3.56266 17.0939 2.3335 13.9997 2.3335Z" fill="#DE675A"/>
<path d="M8.16663 11.0835H10.5V19.8335H8.16663V11.0835ZM9.32629 9.91683H9.31346C8.61696 9.91683 8.16663 9.39766 8.16663 8.74958C8.16663 8.0875 8.63096 7.5835 9.33971 7.5835C10.0496 7.5835 10.4865 8.0875 10.5 8.74958C10.5 9.39766 10.0496 9.91683 9.32629 9.91683ZM20.4166 14.2918C20.4166 12.5197 18.9805 11.0835 17.2083 11.0835C16.1221 11.0835 15.1637 11.6248 14.5833 12.4508V11.0835H12.25V19.8335H14.5833V15.1668C14.5833 14.2002 15.3667 13.4168 16.3333 13.4168C17.2999 13.4168 18.0833 14.2002 18.0833 15.1668V19.8335H20.4166C20.4166 19.8335 20.4166 14.5374 20.4166 14.2918Z" fill="white"/>
</svg>
