<svg width="20" height="28" viewBox="0 0 20 28" fill="none" xmlns="http://www.w3.org/2000/svg">
<path d="M10.1 27.2997L10.0067 27.3862L10.1002 27.4871L10.1935 27.3861L10.1 27.2997ZM10.1 27.2997C10.1935 27.3861 10.1935 27.386 10.1936 27.3859L10.194 27.3855L10.1953 27.3841L10.2004 27.3786L10.2201 27.357C10.2375 27.3379 10.2633 27.3096 10.2968 27.2724C10.3638 27.1979 10.462 27.0879 10.5868 26.9453C10.8364 26.66 11.1928 26.2442 11.6204 25.7214C12.4754 24.676 13.6156 23.2021 14.756 21.4883C17.0321 18.0675 19.3273 13.6648 19.3273 9.79971C19.3273 4.70342 15.1963 0.572434 10.1 0.572434C5.00371 0.572434 0.872727 4.70342 0.872727 9.79971C0.872727 13.684 3.1678 18.0867 5.44409 21.5028C6.58451 23.2143 7.7247 24.6846 8.57972 25.727C9.00729 26.2483 9.36369 26.6627 9.61335 26.947C9.73819 27.0892 9.83634 27.1988 9.90338 27.273C9.93689 27.31 9.96263 27.3383 9.98003 27.3573L9.99981 27.3788L10.0049 27.3843L10.0062 27.3857L10.0065 27.3861C10.0066 27.3862 10.0067 27.3862 10.1 27.2997ZM10.1 1.52698C14.6616 1.52698 18.3727 5.2381 18.3727 9.79971C18.3727 12.8888 16.7634 16.4243 14.9026 19.4752C13.1053 22.4219 11.0859 24.8969 10.0991 26.0484C9.11171 24.9002 7.09278 22.4328 5.29612 19.4893C3.43599 16.4418 1.82727 12.9047 1.82727 9.79971C1.82727 5.2381 5.53839 1.52698 10.1 1.52698Z" fill="white" stroke="white" stroke-width="0.254545"/>
<path d="M10.1001 6.42737C11.9626 6.42737 13.4729 7.93769 13.4729 9.8001C13.4729 11.6625 11.9626 13.1728 10.1001 13.1728C8.23774 13.1728 6.72742 11.6625 6.72742 9.8001C6.72742 7.93769 8.23774 6.42737 10.1001 6.42737ZM10.1001 5.47282C7.71426 5.47282 5.77287 7.41421 5.77287 9.8001C5.77287 12.186 7.71426 14.1274 10.1001 14.1274C12.486 14.1274 14.4274 12.186 14.4274 9.8001C14.4274 7.41421 12.486 5.47282 10.1001 5.47282Z" fill="white" stroke="white" stroke-width="0.254545"/>
</svg>
