<svg width="179" height="52" viewBox="0 0 179 52" fill="none" xmlns="http://www.w3.org/2000/svg">
<path d="M18.216 12.4H7.776V21.904C7.776 25.036 10.944 23.524 10.944 24.64C10.944 24.856 10.8 25.072 10.476 25.072C9.612 25.072 8.748 25 6.048 25C3.348 25 2.484 25.072 1.62 25.072C1.296 25.072 1.152 24.856 1.152 24.64C1.152 23.524 4.32 25.036 4.32 21.904V3.688C4.32 0.555999 1.152 2.068 1.152 0.951998C1.152 0.735999 1.296 0.52 1.62 0.52C2.484 0.52 3.348 0.591999 6.048 0.591999C8.748 0.591999 9.612 0.52 10.476 0.52C10.8 0.52 10.944 0.735999 10.944 0.951998C10.944 2.068 7.776 0.555999 7.776 3.688V11.752H18.216V3.688C18.216 0.555999 15.048 2.068 15.048 0.951998C15.048 0.735999 15.192 0.52 15.516 0.52C16.38 0.52 17.244 0.591999 19.944 0.591999C22.644 0.591999 23.508 0.52 24.372 0.52C24.696 0.52 24.84 0.735999 24.84 0.951998C24.84 2.068 21.672 0.555999 21.672 3.688V21.904C21.672 25.036 24.84 23.524 24.84 24.64C24.84 24.856 24.696 25.072 24.372 25.072C23.508 25.072 22.644 25 19.944 25C17.244 25 16.38 25.072 15.516 25.072C15.192 25.072 15.048 24.856 15.048 24.64C15.048 23.524 18.216 25.036 18.216 21.904V12.4ZM35.6285 24.424C39.2285 24.424 40.5245 20.68 40.5245 16.828C40.5245 12.976 39.2285 9.232 35.6285 9.232C32.0285 9.232 30.7325 12.976 30.7325 16.828C30.7325 20.68 32.0285 24.424 35.6285 24.424ZM35.6285 25.288C30.8405 25.288 27.2765 21.292 27.2765 16.828C27.2765 12.364 30.8405 8.368 35.6285 8.368C40.4165 8.368 43.9805 12.364 43.9805 16.828C43.9805 21.292 40.4165 25.288 35.6285 25.288ZM52.1564 8.368V11.68C53.8844 10.384 56.2604 8.368 58.9604 8.368C61.8764 8.368 63.0284 9.952 63.0284 12.076V22.48C63.0284 24.748 65.6924 23.668 65.6924 24.64C65.6924 24.964 65.5124 25.072 65.1164 25.072C64.2164 25.072 63.3884 25 61.4084 25C59.4284 25 58.6004 25.072 57.7004 25.072C57.3044 25.072 57.1244 24.964 57.1244 24.64C57.1244 23.668 59.7884 24.748 59.7884 22.48V12.616C59.7884 11.104 59.1764 10.24 57.3404 10.24C55.2884 10.24 53.8844 11.104 52.1564 12.688V22.48C52.1564 24.748 54.8204 23.668 54.8204 24.64C54.8204 24.964 54.6404 25.072 54.2444 25.072C53.3444 25.072 52.5164 25 50.5364 25C48.5564 25 47.7284 25.072 46.8284 25.072C46.4324 25.072 46.2524 24.964 46.2524 24.64C46.2524 23.668 48.9164 24.748 48.9164 22.48V12.544C48.9164 10.132 46.2524 11.14 46.2524 10.312C46.2524 9.664 47.2244 10.276 52.1564 8.368ZM74.2883 32.632C70.0043 32.632 66.7283 31.156 66.7283 28.384C66.7283 26.764 68.0603 25.756 69.5363 25.36C68.6363 24.676 68.0243 23.74 68.0243 22.516C68.0243 20.104 70.5083 19.024 73.1003 19.06V18.952C70.7963 18.556 68.4923 17.044 68.4923 13.984C68.4923 10.06 72.2363 8.368 75.0083 8.368C75.0083 6.856 76.3763 3.616 78.7523 3.616C79.9043 3.616 80.5163 4.264 80.5163 5.056C80.5163 6.208 79.7243 6.712 78.4283 6.712C77.9603 6.712 77.6003 6.64 77.1683 6.64C76.1963 6.64 75.8723 7.396 75.7283 8.368C78.7163 8.512 81.8123 10.42 81.8123 13.624C81.8123 17.26 78.6443 18.808 75.8363 19.24C71.9843 19.816 70.8323 19.96 70.8323 21.256C70.8323 22.228 71.7683 22.984 74.0363 22.984H77.3843C81.8123 22.984 83.4323 24.748 83.4323 27.376C83.4323 30.328 79.6523 32.632 74.2883 32.632ZM80.6243 28.456C80.6243 25.108 76.9883 27.052 70.4003 25.72C69.3563 25.72 68.4563 26.728 68.4563 28.168C68.4563 30.472 70.4723 31.768 74.0723 31.768C78.5003 31.768 80.6243 30.544 80.6243 28.456ZM72.0923 13.804H72.0563C72.0923 17.152 72.9203 18.592 75.1163 18.592C77.3843 18.592 78.2123 17.152 78.2483 13.804C78.2123 10.456 77.4203 9.016 75.1523 9.016C72.9203 9.016 72.0563 10.456 72.0923 13.804ZM92.9683 24.424C96.5683 24.424 97.8643 20.68 97.8643 16.828C97.8643 12.976 96.5683 9.232 92.9683 9.232C89.3683 9.232 88.0723 12.976 88.0723 16.828C88.0723 20.68 89.3683 24.424 92.9683 24.424ZM92.9683 25.288C88.1803 25.288 84.6163 21.292 84.6163 16.828C84.6163 12.364 88.1803 8.368 92.9683 8.368C97.7563 8.368 101.32 12.364 101.32 16.828C101.32 21.292 97.7563 25.288 92.9683 25.288ZM120.596 3.688V21.904C120.596 23.524 121.172 24.208 123.368 24.208C127.544 24.208 131.072 21.256 132.584 17.728C133.34 15.964 133.232 15.496 133.628 15.496C133.808 15.496 133.916 15.604 133.916 15.82C133.916 16 133.772 16.72 133.592 17.404L131.72 25.072C127.76 25.036 123.584 25 118.868 25C116.168 25 115.304 25.072 114.44 25.072C114.116 25.072 113.972 24.856 113.972 24.64C113.972 23.524 117.14 25.036 117.14 21.904V3.688C117.14 0.555999 113.972 2.068 113.972 0.951998C113.972 0.735999 114.116 0.52 114.44 0.52C115.304 0.52 116.168 0.591999 118.868 0.591999C121.568 0.591999 122.432 0.52 123.296 0.52C123.62 0.52 123.764 0.735999 123.764 0.951998C123.764 2.068 120.596 0.555999 120.596 3.688ZM149.228 12.076V22.768C149.228 23.416 149.588 23.776 150.164 23.776C151.172 23.776 151.856 22.552 152.18 22.552C152.324 22.552 152.468 22.66 152.468 22.876C152.468 23.2 150.524 25.288 148.616 25.288C146.852 25.288 146.132 23.848 146.06 22.66C143.936 24.424 141.776 25.288 139.976 25.288C137.636 25.288 136.124 23.776 136.124 21.76C136.124 19.456 137.312 18.34 145.988 14.992V10.78C145.988 9.664 145.34 9.232 144.224 9.232C139.94 9.232 141.74 14.992 137.888 14.992C137.204 14.992 136.7 14.344 136.7 13.48C136.7 11.284 141.704 8.368 145.052 8.368C147.608 8.368 149.228 9.52 149.228 12.076ZM145.988 21.76V15.856C140.768 17.692 139.58 18.808 139.58 21.112C139.58 23.2 140.372 23.992 141.596 23.992C142.316 23.992 143.972 23.488 145.988 21.76ZM167.696 11.608L171.44 21.004L173.276 16.324C173.996 14.524 174.716 12.148 174.716 11.392C174.716 8.944 172.556 9.7 172.556 8.98C172.556 8.692 172.7 8.584 173.096 8.584C173.6 8.584 174.464 8.656 175.616 8.656C176.84 8.656 177.92 8.584 178.352 8.584C178.784 8.584 178.964 8.692 178.964 8.98C178.964 9.556 177.272 8.656 175.688 12.616L170.756 24.964C170.576 25.396 170.432 25.576 170.144 25.576C169.856 25.576 169.748 25.396 169.568 24.964L165.428 14.308L161.54 24.964C161.396 25.396 161.252 25.576 160.964 25.576C160.676 25.576 160.532 25.396 160.352 24.964L154.808 10.6C154.052 8.656 152.9 9.52 152.9 8.872C152.9 8.656 153.08 8.584 153.62 8.584C154.16 8.584 155.06 8.656 156.212 8.656C157.724 8.656 158.66 8.584 159.056 8.584C159.668 8.584 159.884 8.656 159.884 8.872C159.884 9.484 158.3 8.908 158.3 10.204C158.3 10.888 158.552 11.536 158.768 12.076L162.224 20.752L165.032 13.444L163.916 10.816C163.124 8.944 161.756 9.484 161.756 8.944C161.756 8.656 161.828 8.584 162.116 8.584C162.836 8.584 163.664 8.656 165.176 8.656C166.724 8.656 168.02 8.584 168.74 8.584C169.1 8.584 169.352 8.656 169.352 8.908C169.352 9.628 167.3 8.872 167.3 10.492C167.3 10.708 167.588 11.32 167.696 11.608Z" fill="#212529"/>
<path d="M1.708 45.94V45.088H10.444V45.94H1.708ZM17.1322 49V40.6H22.3282V41.428H18.1402V44.356H21.9682V45.172H18.1402V48.172H22.3282V49H17.1322ZM27.0857 49.144C26.3737 49.144 25.7817 48.964 25.3097 48.604C24.8377 48.244 24.5617 47.756 24.4817 47.14H25.5137C25.5777 47.452 25.7417 47.724 26.0057 47.956C26.2777 48.18 26.6417 48.292 27.0977 48.292C27.5217 48.292 27.8337 48.204 28.0337 48.028C28.2337 47.844 28.3337 47.628 28.3337 47.38C28.3337 47.02 28.2017 46.78 27.9377 46.66C27.6817 46.54 27.3177 46.432 26.8457 46.336C26.5257 46.272 26.2057 46.18 25.8857 46.06C25.5657 45.94 25.2977 45.772 25.0817 45.556C24.8657 45.332 24.7577 45.04 24.7577 44.68C24.7577 44.16 24.9497 43.736 25.3337 43.408C25.7257 43.072 26.2537 42.904 26.9177 42.904C27.5497 42.904 28.0657 43.064 28.4657 43.384C28.8737 43.696 29.1097 44.144 29.1737 44.728H28.1777C28.1377 44.424 28.0057 44.188 27.7817 44.02C27.5657 43.844 27.2737 43.756 26.9057 43.756C26.5457 43.756 26.2657 43.832 26.0657 43.984C25.8737 44.136 25.7777 44.336 25.7777 44.584C25.7777 44.824 25.9017 45.012 26.1497 45.148C26.4057 45.284 26.7497 45.4 27.1817 45.496C27.5497 45.576 27.8977 45.676 28.2257 45.796C28.5617 45.908 28.8337 46.08 29.0417 46.312C29.2577 46.536 29.3657 46.864 29.3657 47.296C29.3737 47.832 29.1697 48.276 28.7537 48.628C28.3457 48.972 27.7897 49.144 27.0857 49.144ZM33.8481 49C33.3041 49 32.8761 48.868 32.5641 48.604C32.2521 48.34 32.0961 47.864 32.0961 47.176V43.9H31.0641V43.048H32.0961L32.2281 41.62H33.1041V43.048H34.8561V43.9H33.1041V47.176C33.1041 47.552 33.1801 47.808 33.3321 47.944C33.4841 48.072 33.7521 48.136 34.1361 48.136H34.7601V49H33.8481ZM39.0767 49.144C38.5807 49.144 38.1687 49.06 37.8407 48.892C37.5127 48.724 37.2687 48.5 37.1087 48.22C36.9487 47.94 36.8687 47.636 36.8687 47.308C36.8687 46.7 37.1007 46.232 37.5647 45.904C38.0287 45.576 38.6607 45.412 39.4607 45.412H41.0687V45.34C41.0687 44.82 40.9327 44.428 40.6607 44.164C40.3887 43.892 40.0247 43.756 39.5687 43.756C39.1767 43.756 38.8367 43.856 38.5487 44.056C38.2687 44.248 38.0927 44.532 38.0207 44.908H36.9887C37.0287 44.476 37.1727 44.112 37.4207 43.816C37.6767 43.52 37.9927 43.296 38.3687 43.144C38.7447 42.984 39.1447 42.904 39.5687 42.904C40.4007 42.904 41.0247 43.128 41.4407 43.576C41.8647 44.016 42.0767 44.604 42.0767 45.34V49H41.1767L41.1167 47.932C40.9487 48.268 40.7007 48.556 40.3727 48.796C40.0527 49.028 39.6207 49.144 39.0767 49.144ZM39.2327 48.292C39.6167 48.292 39.9447 48.192 40.2167 47.992C40.4967 47.792 40.7087 47.532 40.8527 47.212C40.9967 46.892 41.0687 46.556 41.0687 46.204V46.192H39.5447C38.9527 46.192 38.5327 46.296 38.2847 46.504C38.0447 46.704 37.9247 46.956 37.9247 47.26C37.9247 47.572 38.0367 47.824 38.2607 48.016C38.4927 48.2 38.8167 48.292 39.2327 48.292ZM46.7369 49C46.1929 49 45.7649 48.868 45.4529 48.604C45.1409 48.34 44.9849 47.864 44.9849 47.176V43.9H43.9529V43.048H44.9849L45.1169 41.62H45.9929V43.048H47.7449V43.9H45.9929V47.176C45.9929 47.552 46.0689 47.808 46.2209 47.944C46.3729 48.072 46.6409 48.136 47.0249 48.136H47.6489V49H46.7369ZM52.4974 49.144C51.9294 49.144 51.4254 49.016 50.9854 48.76C50.5454 48.496 50.1974 48.132 49.9414 47.668C49.6934 47.204 49.5694 46.656 49.5694 46.024C49.5694 45.4 49.6934 44.856 49.9414 44.392C50.1894 43.92 50.5334 43.556 50.9734 43.3C51.4214 43.036 51.9374 42.904 52.5214 42.904C53.0974 42.904 53.5934 43.036 54.0094 43.3C54.4334 43.556 54.7574 43.896 54.9814 44.32C55.2054 44.744 55.3174 45.2 55.3174 45.688C55.3174 45.776 55.3134 45.864 55.3054 45.952C55.3054 46.04 55.3054 46.14 55.3054 46.252H50.5654C50.5894 46.708 50.6934 47.088 50.8774 47.392C51.0694 47.688 51.3054 47.912 51.5854 48.064C51.8734 48.216 52.1774 48.292 52.4974 48.292C52.9134 48.292 53.2614 48.196 53.5414 48.004C53.8214 47.812 54.0254 47.552 54.1534 47.224H55.1494C54.9894 47.776 54.6814 48.236 54.2254 48.604C53.7774 48.964 53.2014 49.144 52.4974 49.144ZM52.4974 43.756C52.0174 43.756 51.5894 43.904 51.2134 44.2C50.8454 44.488 50.6334 44.912 50.5774 45.472H54.3214C54.2974 44.936 54.1134 44.516 53.7694 44.212C53.4254 43.908 53.0014 43.756 52.4974 43.756ZM61.8092 49V40.6H64.5692C65.2252 40.6 65.7652 40.708 66.1892 40.924C66.6132 41.14 66.9252 41.432 67.1252 41.8C67.3332 42.168 67.4372 42.584 67.4372 43.048C67.4372 43.504 67.3372 43.916 67.1372 44.284C66.9372 44.652 66.6252 44.948 66.2012 45.172C65.7772 45.388 65.2332 45.496 64.5692 45.496H62.8172V49H61.8092ZM62.8172 44.644H64.5452C65.2172 44.644 65.6932 44.504 65.9732 44.224C66.2612 43.936 66.4052 43.544 66.4052 43.048C66.4052 42.544 66.2612 42.152 65.9732 41.872C65.6932 41.584 65.2172 41.44 64.5452 41.44H62.8172V44.644ZM69.6585 49V40.36H70.6665V49H69.6585ZM75.2586 49.144C74.7626 49.144 74.3506 49.06 74.0226 48.892C73.6946 48.724 73.4506 48.5 73.2906 48.22C73.1306 47.94 73.0506 47.636 73.0506 47.308C73.0506 46.7 73.2826 46.232 73.7466 45.904C74.2106 45.576 74.8426 45.412 75.6426 45.412H77.2506V45.34C77.2506 44.82 77.1146 44.428 76.8426 44.164C76.5706 43.892 76.2066 43.756 75.7506 43.756C75.3586 43.756 75.0186 43.856 74.7306 44.056C74.4506 44.248 74.2746 44.532 74.2026 44.908H73.1706C73.2106 44.476 73.3546 44.112 73.6026 43.816C73.8586 43.52 74.1746 43.296 74.5506 43.144C74.9266 42.984 75.3266 42.904 75.7506 42.904C76.5826 42.904 77.2066 43.128 77.6226 43.576C78.0466 44.016 78.2586 44.604 78.2586 45.34V49H77.3586L77.2986 47.932C77.1306 48.268 76.8826 48.556 76.5546 48.796C76.2346 49.028 75.8026 49.144 75.2586 49.144ZM75.4146 48.292C75.7986 48.292 76.1266 48.192 76.3986 47.992C76.6786 47.792 76.8906 47.532 77.0346 47.212C77.1786 46.892 77.2506 46.556 77.2506 46.204V46.192H75.7266C75.1346 46.192 74.7146 46.296 74.4666 46.504C74.2266 46.704 74.1066 46.956 74.1066 47.26C74.1066 47.572 74.2186 47.824 74.4426 48.016C74.6746 48.2 74.9986 48.292 75.4146 48.292ZM80.7308 49V43.048H81.6428L81.7028 44.116C81.8948 43.74 82.1708 43.444 82.5308 43.228C82.8908 43.012 83.2988 42.904 83.7548 42.904C84.4588 42.904 85.0188 43.12 85.4348 43.552C85.8588 43.976 86.0708 44.632 86.0708 45.52V49H85.0628V45.628C85.0628 44.388 84.5508 43.768 83.5268 43.768C83.0148 43.768 82.5868 43.956 82.2428 44.332C81.9068 44.7 81.7388 45.228 81.7388 45.916V49H80.7308ZM88.558 49V43.048H89.47L89.53 44.116C89.722 43.74 89.998 43.444 90.358 43.228C90.718 43.012 91.126 42.904 91.582 42.904C92.286 42.904 92.846 43.12 93.262 43.552C93.686 43.976 93.898 44.632 93.898 45.52V49H92.89V45.628C92.89 44.388 92.378 43.768 91.354 43.768C90.842 43.768 90.414 43.956 90.07 44.332C89.734 44.7 89.566 45.228 89.566 45.916V49H88.558ZM96.9972 41.728C96.7972 41.728 96.6292 41.664 96.4932 41.536C96.3652 41.4 96.3012 41.232 96.3012 41.032C96.3012 40.84 96.3652 40.68 96.4932 40.552C96.6292 40.424 96.7972 40.36 96.9972 40.36C97.1892 40.36 97.3532 40.424 97.4892 40.552C97.6252 40.68 97.6932 40.84 97.6932 41.032C97.6932 41.232 97.6252 41.4 97.4892 41.536C97.3532 41.664 97.1892 41.728 96.9972 41.728ZM96.4932 49V43.048H97.5012V49H96.4932ZM100.216 49V43.048H101.128L101.188 44.116C101.38 43.74 101.656 43.444 102.016 43.228C102.376 43.012 102.784 42.904 103.24 42.904C103.944 42.904 104.504 43.12 104.92 43.552C105.344 43.976 105.556 44.632 105.556 45.52V49H104.548V45.628C104.548 44.388 104.036 43.768 103.012 43.768C102.5 43.768 102.072 43.956 101.728 44.332C101.392 44.7 101.224 45.228 101.224 45.916V49H100.216ZM110.395 47.128C110.059 47.128 109.751 47.084 109.471 46.996L108.871 47.56C108.959 47.624 109.067 47.68 109.195 47.728C109.331 47.768 109.523 47.808 109.771 47.848C110.019 47.88 110.367 47.916 110.815 47.956C111.615 48.012 112.187 48.196 112.531 48.508C112.875 48.82 113.047 49.228 113.047 49.732C113.047 50.076 112.951 50.404 112.759 50.716C112.575 51.028 112.287 51.284 111.895 51.484C111.511 51.684 111.015 51.784 110.407 51.784C109.871 51.784 109.395 51.712 108.979 51.568C108.563 51.432 108.239 51.22 108.007 50.932C107.775 50.652 107.659 50.296 107.659 49.864C107.659 49.64 107.719 49.396 107.839 49.132C107.959 48.876 108.183 48.632 108.511 48.4C108.335 48.328 108.183 48.252 108.055 48.172C107.935 48.084 107.823 47.988 107.719 47.884V47.608L108.739 46.6C108.267 46.2 108.031 45.672 108.031 45.016C108.031 44.624 108.123 44.268 108.307 43.948C108.491 43.628 108.759 43.376 109.111 43.192C109.463 43 109.891 42.904 110.395 42.904C110.739 42.904 111.051 42.952 111.331 43.048H113.527V43.804L112.411 43.852C112.643 44.188 112.759 44.576 112.759 45.016C112.759 45.408 112.663 45.764 112.471 46.084C112.287 46.404 112.019 46.66 111.667 46.852C111.323 47.036 110.899 47.128 110.395 47.128ZM110.395 46.3C110.819 46.3 111.155 46.192 111.403 45.976C111.659 45.752 111.787 45.432 111.787 45.016C111.787 44.608 111.659 44.296 111.403 44.08C111.155 43.856 110.819 43.744 110.395 43.744C109.963 43.744 109.619 43.856 109.363 44.08C109.115 44.296 108.991 44.608 108.991 45.016C108.991 45.432 109.115 45.752 109.363 45.976C109.619 46.192 109.963 46.3 110.395 46.3ZM108.643 49.768C108.643 50.168 108.811 50.464 109.147 50.656C109.483 50.856 109.903 50.956 110.407 50.956C110.903 50.956 111.299 50.848 111.595 50.632C111.899 50.416 112.051 50.128 112.051 49.768C112.051 49.512 111.947 49.288 111.739 49.096C111.531 48.912 111.147 48.804 110.587 48.772C110.147 48.74 109.767 48.7 109.447 48.652C109.119 48.828 108.903 49.016 108.799 49.216C108.695 49.424 108.643 49.608 108.643 49.768ZM119.82 49V40.6H120.828V48.196H124.74V49H119.82ZM129.005 49.144C128.509 49.144 128.097 49.06 127.769 48.892C127.441 48.724 127.197 48.5 127.037 48.22C126.877 47.94 126.797 47.636 126.797 47.308C126.797 46.7 127.029 46.232 127.493 45.904C127.957 45.576 128.589 45.412 129.389 45.412H130.997V45.34C130.997 44.82 130.861 44.428 130.589 44.164C130.317 43.892 129.953 43.756 129.497 43.756C129.105 43.756 128.765 43.856 128.477 44.056C128.197 44.248 128.021 44.532 127.949 44.908H126.917C126.957 44.476 127.101 44.112 127.349 43.816C127.605 43.52 127.921 43.296 128.297 43.144C128.673 42.984 129.073 42.904 129.497 42.904C130.329 42.904 130.953 43.128 131.369 43.576C131.793 44.016 132.005 44.604 132.005 45.34V49H131.105L131.045 47.932C130.877 48.268 130.629 48.556 130.301 48.796C129.981 49.028 129.549 49.144 129.005 49.144ZM129.161 48.292C129.545 48.292 129.873 48.192 130.145 47.992C130.425 47.792 130.637 47.532 130.781 47.212C130.925 46.892 130.997 46.556 130.997 46.204V46.192H129.473C128.881 46.192 128.461 46.296 128.213 46.504C127.973 46.704 127.853 46.956 127.853 47.26C127.853 47.572 127.965 47.824 128.189 48.016C128.421 48.2 128.745 48.292 129.161 48.292ZM135.56 49L133.82 43.048H134.828L136.088 47.716L137.48 43.048H138.62L140.024 47.716L141.272 43.048H142.292L140.552 49H139.52L138.056 44.092L136.592 49H135.56ZM145.015 51.64L146.491 48.424H146.143L143.779 43.048H144.871L146.839 47.68L148.927 43.048H149.971L146.071 51.64H145.015ZM154.108 49.144C153.54 49.144 153.036 49.016 152.596 48.76C152.156 48.496 151.808 48.132 151.552 47.668C151.304 47.204 151.18 46.656 151.18 46.024C151.18 45.4 151.304 44.856 151.552 44.392C151.8 43.92 152.144 43.556 152.584 43.3C153.032 43.036 153.548 42.904 154.132 42.904C154.708 42.904 155.204 43.036 155.62 43.3C156.044 43.556 156.368 43.896 156.592 44.32C156.816 44.744 156.928 45.2 156.928 45.688C156.928 45.776 156.924 45.864 156.916 45.952C156.916 46.04 156.916 46.14 156.916 46.252H152.176C152.2 46.708 152.304 47.088 152.488 47.392C152.68 47.688 152.916 47.912 153.196 48.064C153.484 48.216 153.788 48.292 154.108 48.292C154.524 48.292 154.872 48.196 155.152 48.004C155.432 47.812 155.636 47.552 155.764 47.224H156.76C156.6 47.776 156.292 48.236 155.836 48.604C155.388 48.964 154.812 49.144 154.108 49.144ZM154.108 43.756C153.628 43.756 153.2 43.904 152.824 44.2C152.456 44.488 152.244 44.912 152.188 45.472H155.932C155.908 44.936 155.724 44.516 155.38 44.212C155.036 43.908 154.612 43.756 154.108 43.756ZM159.224 49V43.048H160.136L160.22 44.188C160.404 43.796 160.684 43.484 161.06 43.252C161.436 43.02 161.9 42.904 162.452 42.904V43.96H162.176C161.824 43.96 161.5 44.024 161.204 44.152C160.908 44.272 160.672 44.48 160.496 44.776C160.32 45.072 160.232 45.48 160.232 46V49H159.224ZM168.56 45.94V45.088H177.296V45.94H168.56Z" fill="#212529"/>
</svg>
