<svg width="22" height="18" viewBox="0 0 22 18" fill="none" xmlns="http://www.w3.org/2000/svg">
<path d="M1 3.44439L9.76671 10.3999C10.1319 10.6436 10.561 10.7736 11 10.7736C11.439 10.7736 11.8681 10.6436 12.2333 10.3999L21 3.44439M1 3.44439C1 2.85502 1.23412 2.28979 1.65088 1.87305C2.06762 1.4563 2.63286 1.22217 3.22223 1.22217H18.7777C19.3672 1.22217 19.9324 1.4563 20.3491 1.87305C20.7659 2.28979 21 2.85502 21 3.44439M1 3.44439V14.5555C1 15.1448 1.23412 15.7101 1.65088 16.1268C2.06762 16.5436 2.63286 16.7778 3.22223 16.7778H18.7777C19.3672 16.7778 19.9324 16.5436 20.3491 16.1268C20.7659 15.7101 21 15.1448 21 14.5555V3.44439" stroke="white" stroke-width="0.777779" stroke-linecap="round" stroke-linejoin="round"/>
</svg>
