<svg width="44" height="37" viewBox="0 0 44 37" fill="none" xmlns="http://www.w3.org/2000/svg">
<path d="M17.4617 29.4275C17.4617 32.8312 14.9404 36.1089 10.1499 36.1089C4.22491 36.1089 0.821167 30.9402 0.821167 24.2588C0.821167 13.2912 12.0409 0.0544434 15.1925 0.0544434C15.8228 0.0544434 16.4532 0.180506 16.4532 1.06296C16.4532 3.33212 6.87226 9.38321 6.87226 18.5859C6.87226 20.6029 7.12439 22.4939 9.01535 22.9982C11.7888 23.7546 17.4617 23.6285 17.4617 29.4275ZM43.1788 29.4275C43.1788 32.8312 40.6575 36.1089 35.8671 36.1089C29.942 36.1089 26.5383 30.9402 26.5383 24.2588C26.5383 13.2912 37.758 0.0544434 40.9096 0.0544434C41.54 0.0544434 42.1703 0.180506 42.1703 1.06296C42.1703 3.33212 32.5894 9.38321 32.5894 18.5859C32.5894 20.6029 32.8415 22.4939 34.7325 22.9982C37.5059 23.7546 43.1788 23.6285 43.1788 29.4275Z" fill="white"/>
</svg>
