<svg width="100" height="100" viewBox="0 0 100 100" fill="none" xmlns="http://www.w3.org/2000/svg">
<path d="M68.125 6.0625C65.5547 6.0625 62.9688 7.03125 61 9L57 13C55.0234 14.9766 54.2031 17.6328 54.3125 20.3125L49.9375 24.6875L45.6875 20.5C45.7734 17.8438 44.9609 15.1484 43 13.1875L39 9.1875C37.0312 7.21875 34.4453 6.25 31.875 6.25C29.3047 6.25 26.7812 7.21875 24.8125 9.1875C20.875 13.125 20.875 19.5 24.8125 23.4375L28.8125 27.4375C30.7578 29.3828 33.3672 30.1328 36 30.0625L44 38H6V90H94V38H63.25L59.5625 34.3125L64 29.875C66.6328 29.9453 69.2422 29.1328 71.1875 27.1875L75.1875 23.1875C79.125 19.25 79.125 12.9375 75.1875 9C73.2188 7.03125 70.6953 6.0625 68.125 6.0625ZM68.125 9.9375C69.6484 9.9375 71.1406 10.5781 72.375 11.8125C74.8359 14.2734 74.8359 17.9141 72.375 20.375L68.375 24.375C67.0469 25.7031 65.0547 26.2891 63.3125 26C62.6719 25.8906 62.0234 26.1016 61.5625 26.5625L56.6875 31.4375L52.75 27.5L57.625 22.625C58.0859 22.1641 58.2969 21.5156 58.1875 20.875C57.8984 19.1328 58.4844 17.1406 59.8125 15.8125L63.8125 11.8125C65.0469 10.5781 66.6016 9.9375 68.125 9.9375ZM31.875 10.1875C33.3984 10.1875 34.9531 10.7656 36.1875 12L40.1875 16C41.5156 17.3281 42.1016 19.3203 41.8125 21.0625C41.7031 21.7031 41.9141 22.3516 42.375 22.8125L71.0625 51.5C73.0391 53.3125 74 55.6719 74 58.375V62.125L65.4375 53.625V53.5625L65.1875 53.375L61.25 49.5L38.4375 26.8125C37.9766 26.3516 37.3281 26.1406 36.6875 26.25C34.9453 26.5391 32.9531 25.8906 31.625 24.5625L27.625 20.5625C25.1641 18.1016 25.1641 14.4609 27.625 12C28.8594 10.7656 30.3516 10.1875 31.875 10.1875ZM33.125 14.3125C32.375 14.3125 31.6016 14.5859 31 15.1875C29.7969 16.3906 29.7969 18.1719 31 19.375L33 21.375C34 22.375 35.9844 22.375 37.1875 21.375C38.3906 20.1719 38.3906 18.3906 37.1875 17.1875L35.1875 15.1875C34.5859 14.5859 33.875 14.3125 33.125 14.3125ZM66.875 14.3125C66.125 14.3125 65.4141 14.5859 64.8125 15.1875L62.8125 17.1875C61.8125 18.1875 61.8125 20.1719 62.8125 21.375C64.0156 22.5781 65.7969 22.5781 67 21.375L69 19.375C70.2031 18.1719 70.2031 16.3906 69 15.1875C68.3984 14.5859 67.625 14.3125 66.875 14.3125ZM50 32C48.7812 32 47.8125 32.9688 47.8125 34.1875C47.8125 35.4062 48.7812 36.375 50 36.375C51.2188 36.375 52.1875 35.4062 52.1875 34.1875C52.1875 32.9688 51.2188 32 50 32ZM10 42H14.6875C14.25 42.7812 13.9375 43.5156 13.6875 44.0625C13.4844 44.5234 13.2656 44.8125 13.25 44.875V44.9375L13.1875 45C13.2422 44.9453 12.8047 45.2422 12.1875 45.5C11.5859 45.75 10.8203 46.0625 10 46.4375V42ZM21.1875 42H47.9375L48 42.0625V44.125C38.9297 45.2188 32 53.7734 32 64C32 74.2266 38.9375 82.7734 48 83.875V86H21.1875C19.3828 86 18.9766 85.3984 18.3125 84.25C17.9844 83.6719 17.6797 82.9688 17.375 82.25C17.0703 81.5312 16.7734 80.7734 16 80L15.875 79.875C15.1016 79.2109 14.4219 79.0234 13.6875 78.75C12.9531 78.4766 12.1875 78.2109 11.5625 77.9375C10.9375 77.6641 10.4766 77.3516 10.25 77.125C10.0234 76.8984 10 76.8828 10 76.625V51.375C10 51.2422 10.0312 51.1875 10.0625 51.125C10.0938 51.0625 10.1328 50.9922 10.25 50.875C10.4844 50.6406 10.9922 50.3516 11.625 50.0625C12.2578 49.7734 13 49.5 13.75 49.1875C14.4531 48.8984 15.1719 48.5859 15.875 47.9375V47.875C15.9141 47.8438 15.9609 47.8438 16 47.8125C16.75 47.1094 17.0781 46.3438 17.375 45.6875C17.6875 44.9844 17.9219 44.3125 18.25 43.75C18.4141 43.4688 18.5859 43.2188 18.75 43C18.9141 42.7812 19.1016 42.5859 19.3125 42.4375C19.7344 42.1406 20.2812 42 21.1875 42ZM67.25 42H78.8125C80.6172 42 81.0859 42.6172 81.75 43.75C82.0781 44.3125 82.3125 44.9844 82.625 45.6875C82.9219 46.3438 83.25 47.1094 84 47.8125C84.0391 47.8516 84.0859 47.8359 84.125 47.875C84.1406 47.8906 84.1094 47.9219 84.125 47.9375C84.8281 48.5859 85.5469 48.8984 86.25 49.1875C87 49.5 87.7422 49.7734 88.375 50.0625C89.0078 50.3516 89.5156 50.6406 89.75 50.875C89.9844 51.1094 90 51.1172 90 51.375V76.375C90 76.6328 89.9844 76.7031 89.75 76.9375C89.5156 77.1719 89.0078 77.4609 88.375 77.75C87.7422 78.0391 87 78.3125 86.25 78.625C85.5 78.9375 84.7578 79.2422 84 80C83.2266 80.7734 82.9297 81.5312 82.625 82.25C82.3203 82.9688 82.0156 83.6719 81.6875 84.25C81.0234 85.3984 80.6172 86 78.8125 86H52V83.875C61.0625 82.7734 68 74.2266 68 64C68 63.2422 67.8828 62.4922 67.8125 61.75L74.5625 68.4375C75.1328 69.0312 76.0156 69.2109 76.7734 68.8906C77.5312 68.5781 78.0156 67.8203 78 67V58.375C78 57.9141 77.9844 57.4531 77.9375 57C77.6328 53.8281 76.2422 50.8203 73.8125 48.5625L67.25 42ZM85.3125 42H90V46.4375C89.1797 46.0625 88.4141 45.75 87.8125 45.5C87.1953 45.2422 86.7578 44.9453 86.8125 45L86.75 44.9375V44.875C86.7344 44.8125 86.5156 44.5234 86.3125 44.0625C86.0625 43.5156 85.75 42.7812 85.3125 42ZM48 48.1875V54H52V48.25C53.0938 48.4688 54.2031 48.8125 55.25 49.3125L59.6875 53.625L62.1875 56.0625V56.125C63.3047 58.3438 64 61.0625 64 64C64 72.2344 58.6797 78.7109 52 79.8125V74H48V79.8125C41.3203 78.7109 36 72.2344 36 64C36 55.7656 41.3203 49.2891 48 48.1875ZM48 58V70H52V58H48ZM90 81.375V86H85.3125C85.75 85.1875 86.0625 84.3984 86.3125 83.8125C86.5938 83.1641 86.8828 82.7422 86.8125 82.8125C86.7578 82.8672 87.1953 82.5703 87.8125 82.3125C88.4141 82.0625 89.1797 81.75 90 81.375ZM10 81.5625C10.8281 81.9219 11.625 82.2031 12.25 82.4375C12.8438 82.6562 13.25 82.8906 13.25 82.875C13.2344 82.875 13.4297 83.2109 13.6875 83.8125C13.9375 84.3984 14.25 85.1875 14.6875 86H10V81.5625Z" fill="#76C2BD"/>
</svg>
